<svg width="1440" height="1024" viewBox="0 0 1440 1024" fill="none" xmlns="http://www.w3.org/2000/svg">
<g clip-path="url(#clip0_0_2063)">
<rect width="1440" height="1024" fill="white"/>
<path d="M649.118 681.5H651.578V677.375H653.374L655.578 681.5H658.294L655.822 676.977C657.146 676.409 657.879 675.256 657.879 673.665C657.879 671.352 656.351 669.864 653.709 669.864H649.118V681.5ZM651.578 675.398V671.875H653.237C654.658 671.875 655.345 672.506 655.345 673.665C655.345 674.818 654.658 675.398 653.249 675.398H651.578ZM663.069 681.67C665.228 681.67 666.683 680.619 667.024 679L664.785 678.852C664.541 679.517 663.916 679.864 663.109 679.864C661.899 679.864 661.132 679.062 661.132 677.761V677.756H667.075V677.091C667.075 674.125 665.279 672.659 662.973 672.659C660.404 672.659 658.74 674.483 658.74 677.176C658.74 679.943 660.382 681.67 663.069 681.67ZM661.132 676.256C661.183 675.261 661.938 674.466 663.012 674.466C664.063 674.466 664.791 675.216 664.796 676.256H661.132ZM668.314 684.773H670.735V680.102H670.809C671.144 680.83 671.877 681.642 673.286 681.642C675.275 681.642 676.826 680.068 676.826 677.148C676.826 674.148 675.206 672.659 673.292 672.659C671.831 672.659 671.133 673.528 670.809 674.239H670.701V672.773H668.314V684.773ZM670.684 677.136C670.684 675.58 671.343 674.585 672.519 674.585C673.718 674.585 674.354 675.625 674.354 677.136C674.354 678.659 673.706 679.716 672.519 679.716C671.354 679.716 670.684 678.693 670.684 677.136ZM682.043 681.67C684.69 681.67 686.338 679.858 686.338 677.17C686.338 674.466 684.69 672.659 682.043 672.659C679.395 672.659 677.747 674.466 677.747 677.17C677.747 679.858 679.395 681.67 682.043 681.67ZM682.054 679.795C680.832 679.795 680.207 678.676 680.207 677.153C680.207 675.631 680.832 674.506 682.054 674.506C683.253 674.506 683.878 675.631 683.878 677.153C683.878 678.676 683.253 679.795 682.054 679.795ZM687.572 681.5H689.992V676.562C689.992 675.489 690.776 674.75 691.845 674.75C692.18 674.75 692.64 674.807 692.867 674.881V672.733C692.651 672.682 692.35 672.648 692.106 672.648C691.129 672.648 690.328 673.216 690.009 674.295H689.918V672.773H687.572V681.5ZM698.858 672.773H697.216V670.682H694.796V672.773H693.603V674.591H694.796V679.136C694.784 680.847 695.949 681.693 697.705 681.619C698.33 681.597 698.773 681.472 699.017 681.392L698.637 679.591C698.517 679.614 698.262 679.67 698.034 679.67C697.551 679.67 697.216 679.489 697.216 678.818V674.591H698.858V672.773ZM705.947 681.665C707.237 681.665 708.072 681.102 708.498 680.29H708.566V681.5H710.862V675.614C710.862 673.534 709.1 672.659 707.157 672.659C705.066 672.659 703.691 673.659 703.356 675.25L705.594 675.432C705.759 674.852 706.276 674.426 707.146 674.426C707.969 674.426 708.441 674.841 708.441 675.557V675.591C708.441 676.153 707.844 676.227 706.327 676.375C704.6 676.534 703.049 677.114 703.049 679.062C703.049 680.79 704.282 681.665 705.947 681.665ZM706.64 679.994C705.896 679.994 705.362 679.648 705.362 678.983C705.362 678.301 705.924 677.966 706.776 677.847C707.305 677.773 708.168 677.648 708.458 677.455V678.381C708.458 679.295 707.702 679.994 706.64 679.994ZM714.82 676.455C714.825 675.33 715.496 674.67 716.473 674.67C717.445 674.67 718.03 675.307 718.024 676.375V681.5H720.445V675.943C720.445 673.909 719.252 672.659 717.433 672.659C716.138 672.659 715.2 673.295 714.808 674.312H714.706V672.773H712.399V681.5H714.82V676.455ZM725.376 681.5H727.796V672.773H725.376V681.5ZM726.592 671.648C727.313 671.648 727.904 671.097 727.904 670.42C727.904 669.75 727.313 669.199 726.592 669.199C725.876 669.199 725.285 669.75 725.285 670.42C725.285 671.097 725.876 671.648 726.592 671.648ZM736.656 675.261C736.44 673.653 735.145 672.659 732.94 672.659C730.707 672.659 729.236 673.693 729.242 675.375C729.236 676.682 730.06 677.528 731.764 677.869L733.276 678.17C734.037 678.324 734.384 678.602 734.395 679.04C734.384 679.557 733.821 679.926 732.975 679.926C732.111 679.926 731.537 679.557 731.389 678.847L729.009 678.972C729.236 680.642 730.656 681.67 732.969 681.67C735.23 681.67 736.85 680.517 736.855 678.795C736.85 677.534 736.026 676.778 734.332 676.432L732.753 676.114C731.94 675.938 731.639 675.659 731.645 675.239C731.639 674.716 732.23 674.375 732.98 674.375C733.821 674.375 734.321 674.835 734.44 675.398L736.656 675.261ZM745.301 675.261C745.085 673.653 743.789 672.659 741.585 672.659C739.352 672.659 737.88 673.693 737.886 675.375C737.88 676.682 738.704 677.528 740.409 677.869L741.92 678.17C742.681 678.324 743.028 678.602 743.039 679.04C743.028 679.557 742.465 679.926 741.619 679.926C740.755 679.926 740.181 679.557 740.034 678.847L737.653 678.972C737.88 680.642 739.301 681.67 741.613 681.67C743.875 681.67 745.494 680.517 745.5 678.795C745.494 677.534 744.67 676.778 742.977 676.432L741.397 676.114C740.585 675.938 740.284 675.659 740.289 675.239C740.284 674.716 740.875 674.375 741.625 674.375C742.465 674.375 742.965 674.835 743.085 675.398L745.301 675.261ZM752.28 677.784C752.286 678.955 751.485 679.568 750.616 679.568C749.701 679.568 749.11 678.926 749.104 677.898V672.773H746.684V678.33C746.689 680.369 747.883 681.614 749.638 681.614C750.951 681.614 751.894 680.938 752.286 679.915H752.377V681.5H754.701V672.773H752.28V677.784ZM760.274 681.67C762.433 681.67 763.888 680.619 764.229 679L761.99 678.852C761.746 679.517 761.121 679.864 760.314 679.864C759.104 679.864 758.337 679.062 758.337 677.761V677.756H764.28V677.091C764.28 674.125 762.484 672.659 760.178 672.659C757.609 672.659 755.945 674.483 755.945 677.176C755.945 679.943 757.587 681.67 760.274 681.67ZM758.337 676.256C758.388 675.261 759.143 674.466 760.217 674.466C761.268 674.466 761.996 675.216 762.001 676.256H758.337Z" fill="#3D3D3D"/>
<path fill-rule="evenodd" clip-rule="evenodd" d="M784.038 680.203L789.19 675.91L784.038 671.617V674.561H773V677.504H784.038V680.203Z" fill="#3D3D3D"/>
<path d="M612.046 579.25H617.046C616.41 574.648 612.353 571.409 607.092 571.409C600.944 571.409 596.206 575.841 596.206 583.386C596.206 590.75 600.637 595.318 607.194 595.318C613.069 595.318 617.262 591.602 617.262 585.477V582.545H607.524V586.25H612.524C612.456 589.136 610.49 590.966 607.217 590.966C603.524 590.966 601.194 588.205 601.194 583.341C601.194 578.5 603.615 575.761 607.171 575.761C609.706 575.761 611.421 577.068 612.046 579.25ZM628.074 595.341C633.369 595.341 636.665 591.716 636.665 586.341C636.665 580.932 633.369 577.318 628.074 577.318C622.778 577.318 619.483 580.932 619.483 586.341C619.483 591.716 622.778 595.341 628.074 595.341ZM628.097 591.591C625.653 591.591 624.403 589.352 624.403 586.307C624.403 583.261 625.653 581.011 628.097 581.011C630.494 581.011 631.744 583.261 631.744 586.307C631.744 589.352 630.494 591.591 628.097 591.591ZM655.143 577.545H651.859V573.364H647.018V577.545H644.631V581.182H647.018V590.273C646.995 593.693 649.325 595.386 652.836 595.239C654.086 595.193 654.972 594.943 655.461 594.784L654.7 591.182C654.461 591.227 653.95 591.341 653.495 591.341C652.529 591.341 651.859 590.977 651.859 589.636V581.182H655.143V577.545ZM665.315 595.341C670.611 595.341 673.906 591.716 673.906 586.341C673.906 580.932 670.611 577.318 665.315 577.318C660.02 577.318 656.724 580.932 656.724 586.341C656.724 591.716 660.02 595.341 665.315 595.341ZM665.338 591.591C662.895 591.591 661.645 589.352 661.645 586.307C661.645 583.261 662.895 581.011 665.338 581.011C667.736 581.011 668.986 583.261 668.986 586.307C668.986 589.352 667.736 591.591 665.338 591.591ZM683.191 595H688.111V585.386H698.1V595H703.009V571.727H698.1V581.33H688.111V571.727H683.191V595ZM714.181 595.341C719.477 595.341 722.772 591.716 722.772 586.341C722.772 580.932 719.477 577.318 714.181 577.318C708.886 577.318 705.59 580.932 705.59 586.341C705.59 591.716 708.886 595.341 714.181 595.341ZM714.204 591.591C711.761 591.591 710.511 589.352 710.511 586.307C710.511 583.261 711.761 581.011 714.204 581.011C716.602 581.011 717.852 583.261 717.852 586.307C717.852 589.352 716.602 591.591 714.204 591.591ZM725.24 595H730.081V584.523C730.081 582.591 731.308 581.307 732.922 581.307C734.513 581.307 735.581 582.398 735.581 584.114V595H740.274V584.341C740.274 582.534 741.308 581.307 743.069 581.307C744.615 581.307 745.774 582.273 745.774 584.216V595H750.604V583.261C750.604 579.477 748.354 577.318 745.104 577.318C742.547 577.318 740.558 578.625 739.842 580.625H739.66C739.104 578.602 737.319 577.318 734.922 577.318C732.569 577.318 730.785 578.568 730.058 580.625H729.854V577.545H725.24V595ZM761.702 595.341C766.02 595.341 768.929 593.239 769.611 590L765.134 589.705C764.645 591.034 763.395 591.727 761.782 591.727C759.361 591.727 757.827 590.125 757.827 587.523V587.511H769.713V586.182C769.713 580.25 766.122 577.318 761.509 577.318C756.372 577.318 753.043 580.966 753.043 586.352C753.043 591.886 756.327 595.341 761.702 595.341ZM757.827 584.511C757.929 582.523 759.441 580.932 761.588 580.932C763.691 580.932 765.145 582.432 765.157 584.511H757.827ZM772.192 601.545H777.033V592.205H777.181C777.852 593.659 779.317 595.284 782.136 595.284C786.113 595.284 789.215 592.136 789.215 586.295C789.215 580.295 785.977 577.318 782.147 577.318C779.227 577.318 777.829 579.057 777.181 580.477H776.965V577.545H772.192V601.545ZM776.931 586.273C776.931 583.159 778.249 581.17 780.602 581.17C782.999 581.17 784.272 583.25 784.272 586.273C784.272 589.318 782.977 591.432 780.602 591.432C778.272 591.432 776.931 589.386 776.931 586.273ZM796.74 595.33C799.319 595.33 800.99 594.205 801.842 592.58H801.978V595H806.569V583.227C806.569 579.068 803.047 577.318 799.16 577.318C794.978 577.318 792.228 579.318 791.558 582.5L796.035 582.864C796.365 581.705 797.399 580.852 799.137 580.852C800.785 580.852 801.728 581.682 801.728 583.114V583.182C801.728 584.307 800.535 584.455 797.501 584.75C794.047 585.068 790.944 586.227 790.944 590.125C790.944 593.58 793.41 595.33 796.74 595.33ZM798.126 591.989C796.637 591.989 795.569 591.295 795.569 589.966C795.569 588.602 796.694 587.932 798.399 587.693C799.456 587.545 801.183 587.295 801.762 586.909V588.761C801.762 590.591 800.251 591.989 798.126 591.989ZM817.509 601.795C822.497 601.795 826.043 599.523 826.043 595.17V577.545H821.236V580.477H821.054C820.406 579.057 818.986 577.318 816.065 577.318C812.236 577.318 808.997 580.295 808.997 586.239C808.997 592.045 812.145 594.75 816.077 594.75C818.861 594.75 820.418 593.352 821.054 591.909H821.259V595.102C821.259 597.386 819.724 598.318 817.622 598.318C815.486 598.318 814.406 597.386 814.009 596.443L809.531 597.045C810.111 599.682 812.804 601.795 817.509 601.795ZM817.611 591.114C815.236 591.114 813.94 589.227 813.94 586.216C813.94 583.25 815.213 581.17 817.611 581.17C819.963 581.17 821.281 583.159 821.281 586.216C821.281 589.295 819.94 591.114 817.611 591.114ZM837.169 595.341C841.488 595.341 844.397 593.239 845.079 590L840.601 589.705C840.113 591.034 838.863 591.727 837.249 591.727C834.829 591.727 833.294 590.125 833.294 587.523V587.511H845.181V586.182C845.181 580.25 841.59 577.318 836.976 577.318C831.84 577.318 828.51 580.966 828.51 586.352C828.51 591.886 831.794 595.341 837.169 595.341ZM833.294 584.511C833.397 582.523 834.908 580.932 837.056 580.932C839.158 580.932 840.613 582.432 840.624 584.511H833.294Z" fill="#FF7171"/>
<rect x="560.5" y="552" width="320" height="62" stroke="#FF7171" stroke-width="2"/>
<path d="M433.14 425.017H437.714V438H439.476V425.017H444.049V423.455H433.14V425.017ZM447.887 431.438C447.887 429.534 449.101 428.455 450.756 428.455C452.333 428.455 453.284 429.449 453.284 431.182V438H454.961V431.068C454.961 428.263 453.469 426.949 451.239 426.949C449.52 426.949 448.54 427.666 448.029 428.795H447.887V423.455H446.21V438H447.887V431.438ZM462.271 438.227C464.487 438.227 466.106 437.119 466.617 435.472L464.998 435.017C464.572 436.153 463.585 436.722 462.271 436.722C460.303 436.722 458.947 435.45 458.869 433.114H466.788V432.403C466.788 428.341 464.373 426.949 462.1 426.949C459.146 426.949 457.186 429.278 457.186 432.631C457.186 435.983 459.117 438.227 462.271 438.227ZM458.869 431.665C458.982 429.967 460.183 428.455 462.1 428.455C463.918 428.455 465.083 429.818 465.083 431.665H458.869ZM474.303 442.091H475.979V436.324H476.121C476.49 436.92 477.2 438.227 479.303 438.227C482.03 438.227 483.933 436.04 483.933 432.574C483.933 429.136 482.03 426.949 479.274 426.949C477.143 426.949 476.49 428.256 476.121 428.824H475.922V427.091H474.303V442.091ZM475.95 432.545C475.95 430.102 477.03 428.455 479.075 428.455C481.206 428.455 482.257 430.244 482.257 432.545C482.257 434.875 481.178 436.722 479.075 436.722C477.058 436.722 475.95 435.017 475.95 432.545ZM489.37 438.256C491.274 438.256 492.268 437.233 492.609 436.523H492.694V438H494.37V430.812C494.37 427.347 491.728 426.949 490.336 426.949C488.688 426.949 486.813 427.517 485.961 429.506L487.552 430.074C487.921 429.278 488.795 428.426 490.393 428.426C491.934 428.426 492.694 429.243 492.694 430.642V430.699C492.694 431.509 491.87 431.438 489.882 431.693C487.857 431.956 485.649 432.403 485.649 434.903C485.649 437.034 487.296 438.256 489.37 438.256ZM489.626 436.75C488.291 436.75 487.325 436.153 487.325 434.989C487.325 433.71 488.49 433.312 489.796 433.142C490.507 433.057 492.41 432.858 492.694 432.517V434.051C492.694 435.415 491.615 436.75 489.626 436.75ZM501.503 442.318C504.117 442.318 506.219 441.125 506.219 438.312V427.091H504.6V428.824H504.429C504.06 428.256 503.378 426.949 501.247 426.949C498.492 426.949 496.588 429.136 496.588 432.489C496.588 435.898 498.577 437.83 501.219 437.83C503.35 437.83 504.031 436.58 504.401 435.983H504.543V438.199C504.543 440.017 503.264 440.841 501.503 440.841C499.521 440.841 498.825 439.797 498.378 439.193L497.043 440.131C497.725 441.274 499.067 442.318 501.503 442.318ZM501.446 436.324C499.344 436.324 498.264 434.733 498.264 432.46C498.264 430.244 499.315 428.455 501.446 428.455C503.492 428.455 504.571 430.102 504.571 432.46C504.571 434.875 503.463 436.324 501.446 436.324ZM513.531 438.227C515.747 438.227 517.366 437.119 517.878 435.472L516.258 435.017C515.832 436.153 514.845 436.722 513.531 436.722C511.564 436.722 510.207 435.45 510.129 433.114H518.048V432.403C518.048 428.341 515.633 426.949 513.36 426.949C510.406 426.949 508.446 429.278 508.446 432.631C508.446 435.983 510.378 438.227 513.531 438.227ZM510.129 431.665C510.243 429.967 511.443 428.455 513.36 428.455C515.179 428.455 516.343 429.818 516.343 431.665H510.129ZM526.642 442.062C528.155 442.062 529.227 441.26 529.852 439.591L534.497 427.119L532.665 427.091L529.654 435.784H529.54L526.529 427.091H524.71L528.745 438.057L528.432 438.909C527.835 440.543 527.068 440.699 525.847 440.386L525.421 441.864C525.591 441.949 526.074 442.062 526.642 442.062ZM540.426 438.227C543.381 438.227 545.369 435.983 545.369 432.602C545.369 429.193 543.381 426.949 540.426 426.949C537.472 426.949 535.483 429.193 535.483 432.602C535.483 435.983 537.472 438.227 540.426 438.227ZM540.426 436.722C538.182 436.722 537.159 434.79 537.159 432.602C537.159 430.415 538.182 428.455 540.426 428.455C542.671 428.455 543.693 430.415 543.693 432.602C543.693 434.79 542.671 436.722 540.426 436.722ZM554.473 433.54C554.473 435.585 552.911 436.523 551.661 436.523C550.268 436.523 549.274 435.5 549.274 433.909V427.091H547.598V434.023C547.598 436.807 549.075 438.142 551.121 438.142C552.768 438.142 553.848 437.261 554.359 436.153H554.473V438H556.149V427.091H554.473V433.54ZM567.394 438.256C569.298 438.256 570.292 437.233 570.633 436.523H570.718V438H572.394V430.812C572.394 427.347 569.752 426.949 568.36 426.949C566.713 426.949 564.838 427.517 563.985 429.506L565.576 430.074C565.945 429.278 566.819 428.426 568.417 428.426C569.958 428.426 570.718 429.243 570.718 430.642V430.699C570.718 431.509 569.894 431.438 567.906 431.693C565.882 431.956 563.673 432.403 563.673 434.903C563.673 437.034 565.32 438.256 567.394 438.256ZM567.65 436.75C566.315 436.75 565.349 436.153 565.349 434.989C565.349 433.71 566.514 433.312 567.82 433.142C568.531 433.057 570.434 432.858 570.718 432.517V434.051C570.718 435.415 569.639 436.75 567.65 436.75ZM575.124 438H576.8V431.097C576.8 429.619 577.965 428.54 579.555 428.54C580.003 428.54 580.465 428.625 580.578 428.653V426.949C580.386 426.935 579.946 426.92 579.697 426.92C578.391 426.92 577.254 427.659 576.857 428.739H576.743V427.091H575.124V438ZM586.477 438.227C588.693 438.227 590.312 437.119 590.823 435.472L589.204 435.017C588.778 436.153 587.791 436.722 586.477 436.722C584.51 436.722 583.153 435.45 583.075 433.114H590.994V432.403C590.994 428.341 588.579 426.949 586.306 426.949C583.352 426.949 581.392 429.278 581.392 432.631C581.392 435.983 583.323 438.227 586.477 438.227ZM583.075 431.665C583.189 429.967 584.389 428.455 586.306 428.455C588.125 428.455 589.289 429.818 589.289 431.665H583.075ZM600.185 423.455H598.509V438H600.185V423.455ZM607.357 438.227C610.311 438.227 612.3 435.983 612.3 432.602C612.3 429.193 610.311 426.949 607.357 426.949C604.402 426.949 602.413 429.193 602.413 432.602C602.413 435.983 604.402 438.227 607.357 438.227ZM607.357 436.722C605.112 436.722 604.089 434.79 604.089 432.602C604.089 430.415 605.112 428.455 607.357 428.455C609.601 428.455 610.624 430.415 610.624 432.602C610.624 434.79 609.601 436.722 607.357 436.722ZM618.96 438.227C621.915 438.227 623.903 435.983 623.903 432.602C623.903 429.193 621.915 426.949 618.96 426.949C616.006 426.949 614.017 429.193 614.017 432.602C614.017 435.983 616.006 438.227 618.96 438.227ZM618.96 436.722C616.716 436.722 615.693 434.79 615.693 432.602C615.693 430.415 616.716 428.455 618.96 428.455C621.204 428.455 622.227 430.415 622.227 432.602C622.227 434.79 621.204 436.722 618.96 436.722ZM626.132 438H627.808V433.916L628.98 432.83L633.064 438H635.194L630.244 431.75L634.853 427.091H632.78L628.007 431.949H627.808V423.455H626.132V438ZM636.681 438H638.357V427.091H636.681V438ZM637.533 425.273C638.187 425.273 638.726 424.761 638.726 424.136C638.726 423.511 638.187 423 637.533 423C636.88 423 636.34 423.511 636.34 424.136C636.34 424.761 636.88 425.273 637.533 425.273ZM642.773 431.438C642.773 429.534 643.952 428.455 645.557 428.455C647.113 428.455 648.057 429.47 648.057 431.182V438H649.733V431.068C649.733 428.284 648.249 426.949 646.04 426.949C644.392 426.949 643.37 427.688 642.858 428.795H642.716V427.091H641.097V438H642.773V431.438ZM656.87 442.318C659.483 442.318 661.585 441.125 661.585 438.312V427.091H659.966V428.824H659.796C659.426 428.256 658.745 426.949 656.614 426.949C653.858 426.949 651.955 429.136 651.955 432.489C651.955 435.898 653.943 437.83 656.585 437.83C658.716 437.83 659.398 436.58 659.767 435.983H659.909V438.199C659.909 440.017 658.631 440.841 656.87 440.841C654.888 440.841 654.192 439.797 653.745 439.193L652.409 440.131C653.091 441.274 654.433 442.318 656.87 442.318ZM656.813 436.324C654.71 436.324 653.631 434.733 653.631 432.46C653.631 430.244 654.682 428.455 656.813 428.455C658.858 428.455 659.938 430.102 659.938 432.46C659.938 434.875 658.83 436.324 656.813 436.324ZM674.477 427.091H672.033V425.983C672.033 424.903 672.488 424.335 673.596 424.335C674.079 424.335 674.363 424.449 674.533 424.506L675.016 423.057C674.761 422.943 674.249 422.773 673.425 422.773C671.863 422.773 670.357 423.71 670.357 425.585V427.091H668.596V428.511H670.357V438H672.033V428.511H674.477V427.091ZM680.478 438.227C683.433 438.227 685.421 435.983 685.421 432.602C685.421 429.193 683.433 426.949 680.478 426.949C677.524 426.949 675.535 429.193 675.535 432.602C675.535 435.983 677.524 438.227 680.478 438.227ZM680.478 436.722C678.234 436.722 677.211 434.79 677.211 432.602C677.211 430.415 678.234 428.455 680.478 428.455C682.723 428.455 683.745 430.415 683.745 432.602C683.745 434.79 682.723 436.722 680.478 436.722ZM687.65 438H689.326V431.097C689.326 429.619 690.491 428.54 692.082 428.54C692.529 428.54 692.991 428.625 693.105 428.653V426.949C692.913 426.935 692.472 426.92 692.224 426.92C690.917 426.92 689.781 427.659 689.383 428.739H689.269V427.091H687.65V438ZM700.056 438H701.733V431.182C701.733 429.584 702.897 428.455 704.204 428.455C705.475 428.455 706.363 429.286 706.363 430.528V438H708.068V430.898C708.068 429.491 708.948 428.455 710.483 428.455C711.676 428.455 712.698 429.087 712.698 430.699V438H714.375V430.699C714.375 428.135 712.997 426.949 711.051 426.949C709.488 426.949 708.345 427.666 707.784 428.795H707.67C707.13 427.631 706.179 426.949 704.744 426.949C703.323 426.949 702.272 427.631 701.818 428.795H701.676V427.091H700.056V438ZM717.109 438H718.785V427.091H717.109V438ZM717.962 425.273C718.615 425.273 719.155 424.761 719.155 424.136C719.155 423.511 718.615 423 717.962 423C717.308 423 716.768 423.511 716.768 424.136C716.768 424.761 717.308 425.273 717.962 425.273ZM725.929 442.318C728.542 442.318 730.645 441.125 730.645 438.312V427.091H729.025V428.824H728.855C728.486 428.256 727.804 426.949 725.673 426.949C722.917 426.949 721.014 429.136 721.014 432.489C721.014 435.898 723.003 437.83 725.645 437.83C727.775 437.83 728.457 436.58 728.826 435.983H728.969V438.199C728.969 440.017 727.69 440.841 725.929 440.841C723.947 440.841 723.251 439.797 722.804 439.193L721.469 440.131C722.15 441.274 723.493 442.318 725.929 442.318ZM725.872 436.324C723.77 436.324 722.69 434.733 722.69 432.46C722.69 430.244 723.741 428.455 725.872 428.455C727.917 428.455 728.997 430.102 728.997 432.46C728.997 434.875 727.889 436.324 725.872 436.324ZM735.059 431.438C735.059 429.534 736.273 428.455 737.928 428.455C739.505 428.455 740.457 429.449 740.457 431.182V438H742.133V431.068C742.133 428.263 740.641 426.949 738.411 426.949C736.693 426.949 735.712 427.666 735.201 428.795H735.059V423.455H733.383V438H735.059V431.438ZM749.614 427.091H747.284V424.477H745.608V427.091H743.96V428.511H745.608V435.33C745.608 437.233 747.142 438.142 748.562 438.142C749.187 438.142 749.585 438.028 749.812 437.943L749.472 436.438C749.329 436.466 749.102 436.523 748.733 436.523C747.994 436.523 747.284 436.295 747.284 434.875V428.511H749.614V427.091ZM758.776 431.438C758.776 429.534 759.991 428.455 761.645 428.455C763.222 428.455 764.174 429.449 764.174 431.182V438H765.85V431.068C765.85 428.263 764.358 426.949 762.128 426.949C760.41 426.949 759.429 427.666 758.918 428.795H758.776V423.455H757.1V438H758.776V431.438ZM771.797 438.256C773.7 438.256 774.694 437.233 775.035 436.523H775.12V438H776.797V430.812C776.797 427.347 774.154 426.949 772.762 426.949C771.115 426.949 769.24 427.517 768.387 429.506L769.978 430.074C770.348 429.278 771.221 428.426 772.819 428.426C774.36 428.426 775.12 429.243 775.12 430.642V430.699C775.12 431.509 774.297 431.438 772.308 431.693C770.284 431.956 768.075 432.403 768.075 434.903C768.075 437.034 769.723 438.256 771.797 438.256ZM772.052 436.75C770.717 436.75 769.751 436.153 769.751 434.989C769.751 433.71 770.916 433.312 772.223 433.142C772.933 433.057 774.836 432.858 775.12 432.517V434.051C775.12 435.415 774.041 436.75 772.052 436.75ZM788.056 427.091H786.237L783.226 435.784H783.112L780.101 427.091H778.283L782.317 438H784.022L788.056 427.091ZM794.121 438.227C796.337 438.227 797.956 437.119 798.468 435.472L796.849 435.017C796.422 436.153 795.435 436.722 794.121 436.722C792.154 436.722 790.797 435.45 790.719 433.114H798.638V432.403C798.638 428.341 796.224 426.949 793.951 426.949C790.996 426.949 789.036 429.278 789.036 432.631C789.036 435.983 790.968 438.227 794.121 438.227ZM790.719 431.665C790.833 429.967 792.033 428.455 793.951 428.455C795.769 428.455 796.934 429.818 796.934 431.665H790.719ZM806.38 438H808V436.324H808.198C808.568 436.92 809.278 438.227 811.38 438.227C814.108 438.227 816.011 436.04 816.011 432.574C816.011 429.136 814.108 426.949 811.352 426.949C809.221 426.949 808.568 428.256 808.198 428.824H808.056V423.455H806.38V438ZM808.028 432.545C808.028 430.102 809.108 428.455 811.153 428.455C813.284 428.455 814.335 430.244 814.335 432.545C814.335 434.875 813.255 436.722 811.153 436.722C809.136 436.722 808.028 435.017 808.028 432.545ZM822.819 438.227C825.035 438.227 826.654 437.119 827.165 435.472L825.546 435.017C825.12 436.153 824.133 436.722 822.819 436.722C820.851 436.722 819.495 435.45 819.417 433.114H827.336V432.403C827.336 428.341 824.921 426.949 822.648 426.949C819.694 426.949 817.734 429.278 817.734 432.631C817.734 435.983 819.665 438.227 822.819 438.227ZM819.417 431.665C819.53 429.967 820.731 428.455 822.648 428.455C824.466 428.455 825.631 429.818 825.631 431.665H819.417ZM834.129 438.227C836.345 438.227 837.965 437.119 838.476 435.472L836.857 435.017C836.431 436.153 835.443 436.722 834.129 436.722C832.162 436.722 830.806 435.45 830.727 433.114H838.646V432.403C838.646 428.341 836.232 426.949 833.959 426.949C831.004 426.949 829.044 429.278 829.044 432.631C829.044 435.983 830.976 438.227 834.129 438.227ZM830.727 431.665C830.841 429.967 832.041 428.455 833.959 428.455C835.777 428.455 836.942 429.818 836.942 431.665H830.727ZM842.542 431.438C842.542 429.534 843.721 428.455 845.326 428.455C846.882 428.455 847.826 429.47 847.826 431.182V438H849.502V431.068C849.502 428.284 848.018 426.949 845.809 426.949C844.162 426.949 843.139 427.688 842.627 428.795H842.485V427.091H840.866V438H842.542V431.438ZM857.53 438H859.206V431.097C859.206 429.619 860.371 428.54 861.962 428.54C862.41 428.54 862.871 428.625 862.985 428.653V426.949C862.793 426.935 862.353 426.92 862.104 426.92C860.797 426.92 859.661 427.659 859.263 428.739H859.15V427.091H857.53V438ZM868.884 438.227C871.099 438.227 872.719 437.119 873.23 435.472L871.611 435.017C871.185 436.153 870.198 436.722 868.884 436.722C866.916 436.722 865.56 435.45 865.482 433.114H873.401V432.403C873.401 428.341 870.986 426.949 868.713 426.949C865.759 426.949 863.798 429.278 863.798 432.631C863.798 435.983 865.73 438.227 868.884 438.227ZM865.482 431.665C865.595 429.967 866.796 428.455 868.713 428.455C870.531 428.455 871.696 429.818 871.696 431.665H865.482ZM875.62 438H877.296V431.182C877.296 429.584 878.461 428.455 879.768 428.455C881.039 428.455 881.927 429.286 881.927 430.528V438H883.632V430.898C883.632 429.491 884.512 428.455 886.046 428.455C887.24 428.455 888.262 429.087 888.262 430.699V438H889.939V430.699C889.939 428.135 888.561 426.949 886.615 426.949C885.052 426.949 883.909 427.666 883.348 428.795H883.234C882.694 427.631 881.742 426.949 880.308 426.949C878.887 426.949 877.836 427.631 877.382 428.795H877.24V427.091H875.62V438ZM897.105 438.227C900.06 438.227 902.048 435.983 902.048 432.602C902.048 429.193 900.06 426.949 897.105 426.949C894.15 426.949 892.162 429.193 892.162 432.602C892.162 435.983 894.15 438.227 897.105 438.227ZM897.105 436.722C894.861 436.722 893.838 434.79 893.838 432.602C893.838 430.415 894.861 428.455 897.105 428.455C899.349 428.455 900.372 430.415 900.372 432.602C900.372 434.79 899.349 436.722 897.105 436.722ZM912.807 427.091H910.988L907.977 435.784H907.863L904.852 427.091H903.034L907.068 438H908.772L912.807 427.091ZM918.872 438.227C921.088 438.227 922.707 437.119 923.219 435.472L921.599 435.017C921.173 436.153 920.186 436.722 918.872 436.722C916.905 436.722 915.548 435.45 915.47 433.114H923.389V432.403C923.389 428.341 920.974 426.949 918.702 426.949C915.747 426.949 913.787 429.278 913.787 432.631C913.787 435.983 915.719 438.227 918.872 438.227ZM915.47 431.665C915.584 429.967 916.784 428.455 918.702 428.455C920.52 428.455 921.685 429.818 921.685 431.665H915.47ZM929.728 438.227C931.831 438.227 932.541 436.92 932.91 436.324H933.109V438H934.728V423.455H933.052V428.824H932.91C932.541 428.256 931.887 426.949 929.757 426.949C927.001 426.949 925.098 429.136 925.098 432.574C925.098 436.04 927.001 438.227 929.728 438.227ZM929.956 436.722C927.853 436.722 926.774 434.875 926.774 432.545C926.774 430.244 927.825 428.455 929.956 428.455C932.001 428.455 933.081 430.102 933.081 432.545C933.081 435.017 931.973 436.722 929.956 436.722ZM940.201 436.011H938.383L938.297 436.807C938.091 438.732 937.687 440.649 937.502 441.551H938.78C939.121 440.585 939.846 438.398 940.087 436.778L940.201 436.011ZM949.947 431.438C949.947 429.534 951.162 428.455 952.817 428.455C954.393 428.455 955.345 429.449 955.345 431.182V438H957.021V431.068C957.021 428.263 955.53 426.949 953.3 426.949C951.581 426.949 950.601 427.666 950.089 428.795H949.947V423.455H948.271V438H949.947V431.438ZM962.968 438.256C964.871 438.256 965.866 437.233 966.207 436.523H966.292V438H967.968V430.812C967.968 427.347 965.326 426.949 963.934 426.949C962.286 426.949 960.411 427.517 959.559 429.506L961.15 430.074C961.519 429.278 962.393 428.426 963.991 428.426C965.532 428.426 966.292 429.243 966.292 430.642V430.699C966.292 431.509 965.468 431.438 963.479 431.693C961.455 431.956 959.246 432.403 959.246 434.903C959.246 437.034 960.894 438.256 962.968 438.256ZM963.224 436.75C961.888 436.75 960.922 436.153 960.922 434.989C960.922 433.71 962.087 433.312 963.394 433.142C964.104 433.057 966.008 432.858 966.292 432.517V434.051C966.292 435.415 965.212 436.75 963.224 436.75ZM974.817 438.227C976.919 438.227 977.629 436.92 977.998 436.324H978.197V438H979.817V423.455H978.14V428.824H977.998C977.629 428.256 976.976 426.949 974.845 426.949C972.089 426.949 970.186 429.136 970.186 432.574C970.186 436.04 972.089 438.227 974.817 438.227ZM975.044 436.722C972.942 436.722 971.862 434.875 971.862 432.545C971.862 430.244 972.913 428.455 975.044 428.455C977.089 428.455 978.169 430.102 978.169 432.545C978.169 435.017 977.061 436.722 975.044 436.722ZM988.084 438H989.76V427.091H988.084V438ZM988.936 425.273C989.59 425.273 990.13 424.761 990.13 424.136C990.13 423.511 989.59 423 988.936 423C988.283 423 987.743 423.511 987.743 424.136C987.743 424.761 988.283 425.273 988.936 425.273ZM997.245 427.091H994.915V424.477H993.239V427.091H991.591V428.511H993.239V435.33C993.239 437.233 994.773 438.142 996.193 438.142C996.818 438.142 997.216 438.028 997.443 437.943L997.102 436.438C996.96 436.466 996.733 436.523 996.364 436.523C995.625 436.523 994.915 436.295 994.915 434.875V428.511H997.245V427.091ZM1006.97 429.534C1006.44 427.986 1005.26 426.949 1003.1 426.949C1000.8 426.949 999.098 428.256 999.098 430.102C999.098 431.608 999.993 432.616 1002 433.085L1003.81 433.511C1004.92 433.767 1005.43 434.293 1005.43 435.045C1005.43 435.983 1004.44 436.75 1002.88 436.75C1001.51 436.75 1000.65 436.161 1000.35 434.989L998.758 435.386C999.148 437.24 1000.68 438.227 1002.91 438.227C1005.44 438.227 1007.17 436.842 1007.17 434.96C1007.17 433.44 1006.21 432.482 1004.27 432.006L1002.65 431.608C1001.36 431.288 1000.77 430.855 1000.77 430.017C1000.77 429.08 1001.77 428.398 1003.1 428.398C1004.57 428.398 1005.17 429.207 1005.46 429.96L1006.97 429.534ZM532.341 465.438C532.341 463.534 533.52 462.455 535.125 462.455C536.68 462.455 537.625 463.47 537.625 465.182V472H539.301V465.068C539.301 462.284 537.816 460.949 535.608 460.949C533.96 460.949 532.937 461.688 532.426 462.795H532.284V461.091H530.664V472H532.341V465.438ZM545.244 472.256C547.147 472.256 548.142 471.233 548.482 470.523H548.568V472H550.244V464.812C550.244 461.347 547.602 460.949 546.21 460.949C544.562 460.949 542.687 461.517 541.835 463.506L543.426 464.074C543.795 463.278 544.669 462.426 546.267 462.426C547.808 462.426 548.568 463.243 548.568 464.642V464.699C548.568 465.509 547.744 465.438 545.755 465.693C543.731 465.956 541.522 466.403 541.522 468.903C541.522 471.034 543.17 472.256 545.244 472.256ZM545.5 470.75C544.164 470.75 543.198 470.153 543.198 468.989C543.198 467.71 544.363 467.312 545.67 467.142C546.38 467.057 548.284 466.858 548.568 466.517V468.051C548.568 469.415 547.488 470.75 545.5 470.75ZM552.973 472H554.649V465.182C554.649 463.584 555.814 462.455 557.121 462.455C558.392 462.455 559.28 463.286 559.28 464.528V472H560.985V464.898C560.985 463.491 561.865 462.455 563.399 462.455C564.592 462.455 565.615 463.087 565.615 464.699V472H567.291V464.699C567.291 462.135 565.913 460.949 563.967 460.949C562.405 460.949 561.262 461.666 560.7 462.795H560.587C560.047 461.631 559.095 460.949 557.661 460.949C556.24 460.949 555.189 461.631 554.735 462.795H554.592V461.091H552.973V472ZM574.6 472.227C576.816 472.227 578.435 471.119 578.946 469.472L577.327 469.017C576.901 470.153 575.914 470.722 574.6 470.722C572.632 470.722 571.276 469.45 571.198 467.114H579.117V466.403C579.117 462.341 576.702 460.949 574.429 460.949C571.475 460.949 569.515 463.278 569.515 466.631C569.515 469.983 571.446 472.227 574.6 472.227ZM571.198 465.665C571.311 463.967 572.512 462.455 574.429 462.455C576.248 462.455 577.412 463.818 577.412 465.665H571.198ZM591.063 472.227C593.478 472.227 595.069 470.75 595.353 468.818H593.677C593.365 470.011 592.37 470.722 591.063 470.722C589.075 470.722 587.796 469.074 587.796 466.545C587.796 464.074 589.103 462.455 591.063 462.455C592.541 462.455 593.421 463.364 593.677 464.358H595.353C595.069 462.312 593.336 460.949 591.035 460.949C588.08 460.949 586.12 463.278 586.12 466.602C586.12 469.869 587.995 472.227 591.063 472.227ZM599.15 465.438C599.15 463.534 600.364 462.455 602.019 462.455C603.596 462.455 604.547 463.449 604.547 465.182V472H606.223V465.068C606.223 462.263 604.732 460.949 602.502 460.949C600.783 460.949 599.803 461.666 599.292 462.795H599.15V457.455H597.473V472H599.15V465.438ZM612.17 472.256C614.074 472.256 615.068 471.233 615.409 470.523H615.494V472H617.17V464.812C617.17 461.347 614.528 460.949 613.136 460.949C611.488 460.949 609.613 461.517 608.761 463.506L610.352 464.074C610.721 463.278 611.595 462.426 613.193 462.426C614.734 462.426 615.494 463.243 615.494 464.642V464.699C615.494 465.509 614.67 465.438 612.681 465.693C610.657 465.956 608.449 466.403 608.449 468.903C608.449 471.034 610.096 472.256 612.17 472.256ZM612.426 470.75C611.091 470.75 610.125 470.153 610.125 468.989C610.125 467.71 611.289 467.312 612.596 467.142C613.306 467.057 615.21 466.858 615.494 466.517V468.051C615.494 469.415 614.414 470.75 612.426 470.75ZM621.576 465.438C621.576 463.534 622.755 462.455 624.36 462.455C625.915 462.455 626.86 463.47 626.86 465.182V472H628.536V465.068C628.536 462.284 627.051 460.949 624.843 460.949C623.195 460.949 622.172 461.688 621.661 462.795H621.519V461.091H619.899V472H621.576V465.438ZM635.672 476.318C638.286 476.318 640.388 475.125 640.388 472.312V461.091H638.769V462.824H638.598C638.229 462.256 637.547 460.949 635.416 460.949C632.661 460.949 630.757 463.136 630.757 466.489C630.757 469.898 632.746 471.83 635.388 471.83C637.519 471.83 638.2 470.58 638.57 469.983H638.712V472.199C638.712 474.017 637.433 474.841 635.672 474.841C633.69 474.841 632.994 473.797 632.547 473.193L631.212 474.131C631.894 475.274 633.236 476.318 635.672 476.318ZM635.615 470.324C633.513 470.324 632.433 468.733 632.433 466.46C632.433 464.244 633.485 462.455 635.615 462.455C637.661 462.455 638.74 464.102 638.74 466.46C638.74 468.875 637.632 470.324 635.615 470.324ZM647.7 472.227C649.916 472.227 651.535 471.119 652.047 469.472L650.427 469.017C650.001 470.153 649.014 470.722 647.7 470.722C645.733 470.722 644.376 469.45 644.298 467.114H652.217V466.403C652.217 462.341 649.802 460.949 647.53 460.949C644.575 460.949 642.615 463.278 642.615 466.631C642.615 469.983 644.547 472.227 647.7 472.227ZM644.298 465.665C644.412 463.967 645.612 462.455 647.53 462.455C649.348 462.455 650.512 463.818 650.512 465.665H644.298ZM658.556 472.227C660.658 472.227 661.369 470.92 661.738 470.324H661.937V472H663.556V457.455H661.88V462.824H661.738C661.369 462.256 660.715 460.949 658.584 460.949C655.829 460.949 653.925 463.136 653.925 466.574C653.925 470.04 655.829 472.227 658.556 472.227ZM658.783 470.722C656.681 470.722 655.602 468.875 655.602 466.545C655.602 464.244 656.653 462.455 658.783 462.455C660.829 462.455 661.908 464.102 661.908 466.545C661.908 469.017 660.8 470.722 658.783 470.722ZM669.029 470.011H667.21L667.125 470.807C666.919 472.732 666.514 474.649 666.33 475.551H667.608C667.949 474.585 668.673 472.398 668.915 470.778L669.029 470.011ZM681.531 472.227C684.485 472.227 686.474 469.983 686.474 466.602C686.474 463.193 684.485 460.949 681.531 460.949C678.576 460.949 676.588 463.193 676.588 466.602C676.588 469.983 678.576 472.227 681.531 472.227ZM681.531 470.722C679.287 470.722 678.264 468.79 678.264 466.602C678.264 464.415 679.287 462.455 681.531 462.455C683.775 462.455 684.798 464.415 684.798 466.602C684.798 468.79 683.775 470.722 681.531 470.722ZM688.703 472H690.379V465.097C690.379 463.619 691.544 462.54 693.134 462.54C693.582 462.54 694.044 462.625 694.157 462.653V460.949C693.965 460.935 693.525 460.92 693.277 460.92C691.97 460.92 690.833 461.659 690.436 462.739H690.322V461.091H688.703V472ZM705.853 461.091H703.524V458.477H701.848V461.091H700.2V462.511H701.848V469.33C701.848 471.233 703.382 472.142 704.802 472.142C705.427 472.142 705.825 472.028 706.052 471.943L705.711 470.438C705.569 470.466 705.342 470.523 704.973 470.523C704.234 470.523 703.524 470.295 703.524 468.875V462.511H705.853V461.091ZM712.501 472.227C714.717 472.227 716.337 471.119 716.848 469.472L715.229 469.017C714.803 470.153 713.815 470.722 712.501 470.722C710.534 470.722 709.178 469.45 709.099 467.114H717.018V466.403C717.018 462.341 714.604 460.949 712.331 460.949C709.376 460.949 707.416 463.278 707.416 466.631C707.416 469.983 709.348 472.227 712.501 472.227ZM709.099 465.665C709.213 463.967 710.413 462.455 712.331 462.455C714.149 462.455 715.314 463.818 715.314 465.665H709.099ZM719.238 472H720.914V465.182C720.914 463.584 722.079 462.455 723.386 462.455C724.657 462.455 725.545 463.286 725.545 464.528V472H727.249V464.898C727.249 463.491 728.13 462.455 729.664 462.455C730.857 462.455 731.88 463.087 731.88 464.699V472H733.556V464.699C733.556 462.135 732.178 460.949 730.232 460.949C728.67 460.949 727.526 461.666 726.965 462.795H726.852C726.312 461.631 725.36 460.949 723.926 460.949C722.505 460.949 721.454 461.631 720.999 462.795H720.857V461.091H719.238V472ZM736.291 476.091H737.967V470.324H738.109C738.478 470.92 739.189 472.227 741.291 472.227C744.018 472.227 745.922 470.04 745.922 466.574C745.922 463.136 744.018 460.949 741.263 460.949C739.132 460.949 738.478 462.256 738.109 462.824H737.91V461.091H736.291V476.091ZM737.939 466.545C737.939 464.102 739.018 462.455 741.064 462.455C743.194 462.455 744.246 464.244 744.246 466.545C744.246 468.875 743.166 470.722 741.064 470.722C739.047 470.722 737.939 469.017 737.939 466.545ZM752.58 472.227C755.535 472.227 757.523 469.983 757.523 466.602C757.523 463.193 755.535 460.949 752.58 460.949C749.626 460.949 747.637 463.193 747.637 466.602C747.637 469.983 749.626 472.227 752.58 472.227ZM752.58 470.722C750.336 470.722 749.313 468.79 749.313 466.602C749.313 464.415 750.336 462.455 752.58 462.455C754.825 462.455 755.847 464.415 755.847 466.602C755.847 468.79 754.825 470.722 752.58 470.722ZM759.752 472H761.428V465.097C761.428 463.619 762.593 462.54 764.184 462.54C764.631 462.54 765.093 462.625 765.207 462.653V460.949C765.015 460.935 764.574 460.92 764.326 460.92C763.019 460.92 761.883 461.659 761.485 462.739H761.371V461.091H759.752V472ZM770.074 472.256C771.977 472.256 772.971 471.233 773.312 470.523H773.398V472H775.074V464.812C775.074 461.347 772.432 460.949 771.04 460.949C769.392 460.949 767.517 461.517 766.665 463.506L768.256 464.074C768.625 463.278 769.498 462.426 771.096 462.426C772.638 462.426 773.398 463.243 773.398 464.642V464.699C773.398 465.509 772.574 465.438 770.585 465.693C768.561 465.956 766.352 466.403 766.352 468.903C766.352 471.034 768 472.256 770.074 472.256ZM770.329 470.75C768.994 470.75 768.028 470.153 768.028 468.989C768.028 467.71 769.193 467.312 770.5 467.142C771.21 467.057 773.113 466.858 773.398 466.517V468.051C773.398 469.415 772.318 470.75 770.329 470.75ZM777.803 472H779.479V465.097C779.479 463.619 780.644 462.54 782.235 462.54C782.682 462.54 783.144 462.625 783.258 462.653V460.949C783.066 460.935 782.625 460.92 782.377 460.92C781.07 460.92 779.934 461.659 779.536 462.739H779.422V461.091H777.803V472ZM784.914 472H786.591V461.091H784.914V472ZM785.767 459.273C786.42 459.273 786.96 458.761 786.96 458.136C786.96 457.511 786.42 457 785.767 457C785.113 457 784.573 457.511 784.573 458.136C784.573 458.761 785.113 459.273 785.767 459.273ZM791.007 457.455H789.331V472H791.007V457.455ZM794.826 476.062C796.339 476.062 797.411 475.26 798.036 473.591L802.681 461.119L800.849 461.091L797.837 469.784H797.724L794.712 461.091H792.894L796.928 472.057L796.616 472.909C796.019 474.543 795.252 474.699 794.031 474.386L793.605 475.864C793.775 475.949 794.258 476.062 794.826 476.062ZM816.739 467.54C816.739 469.585 815.176 470.523 813.926 470.523C812.534 470.523 811.54 469.5 811.54 467.909V461.091H809.864V468.023C809.864 470.807 811.341 472.142 813.387 472.142C815.034 472.142 816.114 471.261 816.625 470.153H816.739V472H818.415V461.091H816.739V467.54ZM822.831 465.438C822.831 463.534 824.01 462.455 825.615 462.455C827.171 462.455 828.115 463.47 828.115 465.182V472H829.791V465.068C829.791 462.284 828.307 460.949 826.098 460.949C824.45 460.949 823.428 461.688 822.916 462.795H822.774V461.091H821.155V472H822.831V465.438ZM835.734 472.256C837.638 472.256 838.632 471.233 838.973 470.523H839.058V472H840.734V464.812C840.734 461.347 838.092 460.949 836.7 460.949C835.053 460.949 833.178 461.517 832.325 463.506L833.916 464.074C834.286 463.278 835.159 462.426 836.757 462.426C838.298 462.426 839.058 463.243 839.058 464.642V464.699C839.058 465.509 838.234 465.438 836.246 465.693C834.222 465.956 832.013 466.403 832.013 468.903C832.013 471.034 833.661 472.256 835.734 472.256ZM835.99 470.75C834.655 470.75 833.689 470.153 833.689 468.989C833.689 467.71 834.854 467.312 836.161 467.142C836.871 467.057 838.774 466.858 839.058 466.517V468.051C839.058 469.415 837.979 470.75 835.99 470.75ZM851.994 461.091H850.175L847.164 469.784H847.05L844.039 461.091H842.221L846.255 472H847.96L851.994 461.091ZM856.754 472.256C858.658 472.256 859.652 471.233 859.993 470.523H860.078V472H861.754V464.812C861.754 461.347 859.112 460.949 857.72 460.949C856.072 460.949 854.197 461.517 853.345 463.506L854.936 464.074C855.305 463.278 856.179 462.426 857.777 462.426C859.318 462.426 860.078 463.243 860.078 464.642V464.699C860.078 465.509 859.254 465.438 857.266 465.693C855.241 465.956 853.033 466.403 853.033 468.903C853.033 471.034 854.68 472.256 856.754 472.256ZM857.01 470.75C855.675 470.75 854.709 470.153 854.709 468.989C854.709 467.71 855.873 467.312 857.18 467.142C857.891 467.057 859.794 466.858 860.078 466.517V468.051C860.078 469.415 858.998 470.75 857.01 470.75ZM864.483 472H866.16V461.091H864.483V472ZM865.336 459.273C865.989 459.273 866.529 458.761 866.529 458.136C866.529 457.511 865.989 457 865.336 457C864.682 457 864.143 457.511 864.143 458.136C864.143 458.761 864.682 459.273 865.336 459.273ZM870.576 457.455H868.9V472H870.576V457.455ZM876.526 472.256C878.429 472.256 879.424 471.233 879.765 470.523H879.85V472H881.526V464.812C881.526 461.347 878.884 460.949 877.492 460.949C875.844 460.949 873.969 461.517 873.117 463.506L874.708 464.074C875.077 463.278 875.951 462.426 877.549 462.426C879.09 462.426 879.85 463.243 879.85 464.642V464.699C879.85 465.509 879.026 465.438 877.037 465.693C875.013 465.956 872.804 466.403 872.804 468.903C872.804 471.034 874.452 472.256 876.526 472.256ZM876.782 470.75C875.446 470.75 874.48 470.153 874.48 468.989C874.48 467.71 875.645 467.312 876.952 467.142C877.662 467.057 879.566 466.858 879.85 466.517V468.051C879.85 469.415 878.77 470.75 876.782 470.75ZM884.482 472H886.102V470.324H886.301C886.67 470.92 887.38 472.227 889.482 472.227C892.21 472.227 894.113 470.04 894.113 466.574C894.113 463.136 892.21 460.949 889.454 460.949C887.323 460.949 886.67 462.256 886.301 462.824H886.159V457.455H884.482V472ZM886.13 466.545C886.13 464.102 887.21 462.455 889.255 462.455C891.386 462.455 892.437 464.244 892.437 466.545C892.437 468.875 891.357 470.722 889.255 470.722C887.238 470.722 886.13 469.017 886.13 466.545ZM898.023 457.455H896.347V472H898.023V457.455ZM905.337 472.227C907.553 472.227 909.172 471.119 909.684 469.472L908.064 469.017C907.638 470.153 906.651 470.722 905.337 470.722C903.37 470.722 902.013 469.45 901.935 467.114H909.854V466.403C909.854 462.341 907.439 460.949 905.167 460.949C902.212 460.949 900.252 463.278 900.252 466.631C900.252 469.983 902.184 472.227 905.337 472.227ZM901.935 465.665C902.049 463.967 903.249 462.455 905.167 462.455C906.985 462.455 908.15 463.818 908.15 465.665H901.935Z" fill="#3D3D3D"/>
<path d="M638.28 309.364C638.28 280.812 620.553 264.534 597.414 264.534C574.147 264.534 556.547 280.812 556.547 309.364C556.547 337.787 574.147 354.193 597.414 354.193C620.553 354.193 638.28 337.915 638.28 309.364ZM619.573 309.364C619.573 327.858 610.795 337.872 597.414 337.872C583.991 337.872 575.255 327.858 575.255 309.364C575.255 290.869 583.991 280.855 597.414 280.855C610.795 280.855 619.573 290.869 619.573 309.364ZM678.512 354.278C698.37 354.278 710.728 340.685 710.728 320.528C710.728 300.244 698.37 286.693 678.512 286.693C658.654 286.693 646.296 300.244 646.296 320.528C646.296 340.685 658.654 354.278 678.512 354.278ZM678.597 340.216C669.435 340.216 664.747 331.821 664.747 320.401C664.747 308.98 669.435 300.543 678.597 300.543C687.588 300.543 692.276 308.98 692.276 320.401C692.276 331.821 687.588 340.216 678.597 340.216ZM719.862 377.545H738.015V342.517H738.569C741.083 347.972 746.58 354.065 757.148 354.065C772.063 354.065 783.697 342.261 783.697 320.358C783.697 297.858 771.552 286.693 757.191 286.693C746.239 286.693 740.998 293.213 738.569 298.54H737.759V287.545H719.862V377.545ZM737.631 320.273C737.631 308.597 742.575 301.139 751.396 301.139C760.387 301.139 765.16 308.938 765.16 320.273C765.16 331.693 760.302 339.619 751.396 339.619C742.66 339.619 737.631 331.949 737.631 320.273ZM847.589 306.21C845.97 294.151 836.254 286.693 819.72 286.693C802.973 286.693 791.936 294.449 791.978 307.062C791.936 316.864 798.115 323.213 810.899 325.77L822.234 328.028C827.944 329.179 830.544 331.267 830.629 334.548C830.544 338.426 826.325 341.196 819.976 341.196C813.498 341.196 809.194 338.426 808.086 333.099L790.231 334.037C791.936 346.565 802.589 354.278 819.933 354.278C836.893 354.278 849.038 345.628 849.081 332.716C849.038 323.256 842.859 317.588 830.16 314.989L818.314 312.602C812.22 311.281 809.961 309.193 810.004 306.04C809.961 302.119 814.393 299.562 820.018 299.562C826.325 299.562 830.075 303.014 830.97 307.233L847.589 306.21ZM879.532 265.727H860.569L862.274 326.835H877.87L879.532 265.727ZM870.072 354.108C875.526 354.108 880.257 349.548 880.299 343.881C880.257 338.298 875.526 333.739 870.072 333.739C864.447 333.739 859.802 338.298 859.845 343.881C859.802 349.548 864.447 354.108 870.072 354.108Z" fill="#3D3D3D"/>
</g>
<defs>
<clipPath id="clip0_0_2063">
<rect width="1440" height="1024" fill="white"/>
</clipPath>
</defs>
</svg>
